<svg width="60" height="30" viewBox="0 0 60 30" fill="none" xmlns="http://www.w3.org/2000/svg">
<path fill-rule="evenodd" clip-rule="evenodd" d="M48.3084 0.75H48.3168C48.8799 0.75 49.3364 1.2065 49.3364 1.76962V5.97463C49.3364 6.53775 48.8799 6.99425 48.3168 6.99425H48.3084C47.7453 6.99425 47.2888 6.53775 47.2888 5.97463V1.76962C47.2888 1.2065 47.7453 0.75 48.3084 0.75ZM28.6553 11.379C26.0604 11.6139 24.6101 12.9522 24.0425 14.0926V5.41234C24.0425 4.22765 23.0822 3.2674 21.8976 3.2674H21.8715C20.6868 3.2674 19.7266 4.22765 19.7266 5.41234V26.6514C19.7266 27.8361 20.6868 28.7964 21.8715 28.7964H21.8955C23.0802 28.7964 24.0404 27.8361 24.0404 26.6514V20.8712C24.0404 17.8035 25.6235 15.9616 28.2038 15.7158C32.1901 15.332 33.2087 17.9118 33.2087 21.7252V26.652C33.2087 27.8367 34.1689 28.7969 35.3536 28.7969C36.5383 28.7969 37.4986 27.8367 37.4986 26.652V20.0906C37.5007 13.5656 33.6596 10.9265 28.6553 11.379ZM8.84537 11.325C13.7305 11.325 17.6907 15.0405 17.6907 20.1703C17.6907 25.2997 17.7053 20.1703 17.7053 20.1703V26.6421C17.7043 27.8336 16.7373 28.7985 15.5458 28.7975C14.3741 28.7975 13.417 27.8622 13.3889 26.6911V26.5932C13.1748 27.9648 11.2746 29.0157 8.84537 29.0157C3.96026 29.0157 0 25.4309 0 20.1703C0 14.9098 3.96026 11.325 8.84537 11.325ZM4.16596 20.1703C4.16596 22.7548 6.26091 24.8497 8.84537 24.8497C11.4298 24.8497 13.5248 22.7548 13.5248 20.1703C13.5248 17.5859 11.4298 15.4909 8.84537 15.4909C6.26091 15.4909 4.16596 17.5859 4.16596 20.1703ZM48.102 11.325C52.9897 11.325 56.9473 15.0405 56.9473 20.1703C56.9473 25.2997 56.9598 20.1703 56.9598 20.1703V26.6401C56.9598 27.8315 55.9939 28.7975 54.8024 28.7975C53.6307 28.7975 52.6736 27.8622 52.6455 26.6911V26.5932C52.4314 27.9648 50.5312 29.0157 48.102 29.0157C43.2143 29.0157 39.2566 25.4309 39.2566 20.1703C39.2566 14.9098 43.2143 11.325 48.102 11.325ZM43.4226 20.1703C43.4226 22.7548 45.5175 24.8497 48.102 24.8497C50.6864 24.8497 52.7814 22.7548 52.7814 20.1703C52.7814 17.5859 50.6864 15.4909 48.102 15.4909C45.5175 15.4909 43.4226 17.5859 43.4226 20.1703ZM36.8722 6.21209L40.1273 8.91997C40.5575 9.27772 41.1959 9.222 41.5573 8.79499C41.9213 8.36486 41.8682 7.72121 41.438 7.35721C41.437 7.35617 41.4358 7.35526 41.4346 7.35435C41.4335 7.35344 41.4323 7.35253 41.4313 7.35149L38.1761 4.64361C37.746 4.28533 37.107 4.34105 36.7456 4.76859C36.3816 5.1982 36.4347 5.84184 36.8644 6.20584L36.8722 6.21209ZM58.0909 4.64422C58.521 4.28594 59.1599 4.34166 59.5213 4.7692C59.5224 4.7705 59.5234 4.77167 59.5244 4.77284C59.5255 4.77401 59.5265 4.77518 59.5276 4.77649C59.8869 5.20975 59.8265 5.85287 59.3932 6.21218L56.1376 8.92005C55.7137 9.24708 55.1091 9.19084 54.7529 8.79143C54.3785 8.37119 54.4155 7.72703 54.8357 7.35209L58.0909 4.64422Z" fill="#333D4B"/>
</svg>
